<svg version="1" xmlns="http://www.w3.org/2000/svg" width="993.333" height="993.333" viewBox="0 0 745.000000 745.000000"><path d="M350.5.6c-2.2.2-9.2.9-15.5 1.5-61.7 5.8-126.6 30.1-177.5 66.4-26.5 18.9-56.3 47-75.1 70.5-28.7 36.1-49.9 75.2-63.8 117.9C-17.3 366.6-.6 485 64.4 581.5c23.7 35.2 57.1 69.2 93.1 95 51 36.4 112.5 59.4 178 66.7 15.6 1.7 59.4 1.7 75 0 65.5-7.3 127-30.3 178-66.7 26.5-18.9 56.3-47 75.1-70.5 41.4-52 67-110 78.1-176.8 2.7-16.3 2.8-17.7 2.8-56.7s-.1-40.4-2.8-56.7C730.6 249 705 191 663.6 139c-18.8-23.5-48.6-51.6-75.1-70.5-49.8-35.6-109.5-58.4-173-66.1-12.2-1.4-56.1-2.7-65-1.8zm86 26.4l5 2.4-6.5.8c-3.6.5-12.9 1.8-20.8 2.9-44.8 6.1-81.8 22.7-121.3 54.3-36.1 28.8-57.4 55.8-75.4 95.4-39.8 87.5-35.4 175.6 12.6 247.5 26.4 39.7 54.4 64.5 96.4 85.2 14.4 7.1 40.5 17.4 40.5 16 0-.3-2-6.7-4.4-14.2-6.7-20.9-7.5-24-8.6-34-2.7-24.5 5.4-41.4 24.3-50.6l7.5-3.7.6-4.7c.3-2.7.8-9.1 1.2-14.3 1.2-19.2 3.9-27.7 12.7-39.6 5.7-7.8 6.7-9.7 6.7-13 0-3.6-3.6-7.4-6.9-7.4-1.4 0-4.1.9-5.9 2-1.8 1.1-3.5 2-3.7 2-1.4 0-.3-8 1.5-10.3 2.5-3.2 2.5-4.9.1-7.1-1.7-1.6-2.6-1.6-7.3-.7-3 .7-8.5 2.7-12.3 4.6-3.8 1.9-7 3.3-7.2 3.2-.1-.2 1.9-2.5 4.6-5.1 3-3 8.4-6.5 14.2-9.4 5.2-2.6 9.4-5.3 9.4-6.1 0-2.1-6.1-3.9-13.2-4-3.5-.1-6.3-.5-6.3-1 0-1.6 9.4-5.1 20.2-7.5 1.9-.4 3.6-2.1 5.4-5.4 1.5-2.6 3.2-5.3 3.8-6.1.7-.9 1.1-7.3 1.1-16.5 0-9.1.4-15.8 1.1-16.9 1-1.7 1.5-1.3 5.8 3.5 9.6 10.7 14.1 12.6 22.2 9.2 5.7-2.4 17.2-1.4 25.5 2.1 3.5 1.6 8.7 3 11.4 3.2 4.9.4 5.2.3 9.1-3.9 2.1-2.4 4.9-5.6 6.1-7.3l2.1-2.9 1.1 3.9c1.7 6.1 1.3 10.5-1.4 18.9-5.1 15.6-1.8 24.8 7.4 21 5.2-2.1 5.8-1.7 2.4 1.8-5.8 6.2-6.7 10.8-2.1 10.8 5.2.1 16.8 7.3 16.8 10.5 0 .9-1.7.9-6.7-.1-8.9-1.7-12.5-1.7-14.9.1-1.8 1.4-1.8 1.6 1.2 4.2 3.5 3.1 7.1 8.3 5.8 8.3-.5-.1-2-.7-3.4-1.5-4.5-2.6-8.5-1.9-11.9 2-4.6 5.3-4.2 8.8 2.5 22.1 5 9.8 5.7 11.9 6.2 18.5.2 4.1-.1 12.9-.7 19.5-1.6 17.3-1.5 17.4 8.6 24.1 14.6 9.6 19.2 18.5 20 38.8.4 9.3 0 14.7-1.6 24.3-1.9 11.5-8.1 38.5-9.7 42.5-.6 1.7-.3 1.8 4.2 1.2 9.2-1.3 32.3-6.4 43.1-9.5 18.6-5.4 35.2-11.8 51.8-20 19.4-9.5 34.4-19.3 45.4-29.6 4.5-4.2 8.4-7.5 8.6-7.2 1 .9-2.8 11.5-7.2 20.4-6.3 12.8-15.3 24.4-32.7 41.8-29.7 29.7-55.1 48.3-90.4 66-22.4 11.2-45.5 19.1-64.9 22.1-3.9.6-4.3.9-4.3 3.6 0 3.3 3.1 9.9 9 18.9 5.6 8.8 7.4 15.5 7.4 27.5-.1 11.2-2 17.7-7.7 26.2-6.5 9.6-19.2 16.2-34.7 17.8-8.1.8-19.4-1.4-25.6-5-17.3-10.2-21.8-30.4-9.3-42.2 4.7-4.4 13.9-8.4 20.8-9 5-.5 6.1-.3 8 1.6 2.5 2.5 2.7 6.8.6 9.8-.9 1.3-3.8 2.9-6.7 3.8-6.7 1.9-9.4 3.8-11.4 7.7-3.5 6.7.9 16.8 8.8 20.7 11.6 5.6 26.1.1 32.6-12.3 2.5-4.8 2.7-5.9 2.7-17.6-.1-11.5-.3-13.1-3.2-20.8-3.3-8.7-7.4-15.9-12.6-22.6l-3.1-3.8-16.5.6c-18.2.8-47-.6-64.5-3-69.2-9.6-129.1-40-181.1-91.9-36.7-36.6-58.9-73.2-72-118.9C93.7 384.9 90 358.7 90 327c0-46 9-85.8 28.6-126.9 27.2-57 73.4-106.9 127.6-138 33.6-19.3 74-32.2 112.3-36 6.1-.6 12.6-1.3 14.5-1.5 1.9-.2 15.9-.3 31-.2 26.5.2 27.7.3 32.5 2.6zm-110 50.9c-.6.5-5.7 4.6-11.5 9.2-13.4 10.6-35 32.3-46.3 46.4-14.6 18.2-29.5 41-42.6 65-3.9 7.1-7.1 12.7-7.1 12.3 0-2.5 8.1-22.6 14-34.5 19.5-39.4 47.8-70.7 84.9-94 7.9-5 10.7-6.4 8.6-4.4zM508 400c2.3 6.6 4.4 10.8 7.3 14.2 3.4 4 8.3 14.6 7.2 15.6-.1.2-3.7-2.2-7.9-5.2s-8.5-5.8-9.6-6.1c-1.8-.6-2-1.6-2-12.8 0-6.7-.3-14-.6-16.2-.5-3.9-.5-3.9.9-1.5.8 1.4 2.9 6.8 4.7 12zm-216.5 67c14.2 8.5 40 20.8 41.2 19.6.3-.3 1.3-5.1 2.2-10.7l1.7-10.3 5.6 18.4c6.7 21.7 9.3 31.8 8.4 32.7-1.9 1.9-31.6-15.7-45.1-26.7-9.2-7.5-24.9-24-30.4-31.9l-4.4-6.3 6.4 5.2c3.5 2.8 10 7.3 14.4 10zm252.1 9.3c2.1 10 1.8 26.9-.6 33.7-1 3-1.6 5.8-1.4 6.2 1.1 1.7 9.4.6 18.7-2.5 5.3-1.8 9.7-3.2 9.7-3 0 1.1-21.3 14-26.8 16.4-6.9 2.8-19.9 5.9-25.2 5.9-3.9 0-3.9-1.6.1-10 5.5-11.5 12.5-29.2 16.8-42.5 2.3-7.2 4.5-13.7 4.8-14.5.7-2 2 1.5 3.9 10.3zM554 598.4c0 .2-1.9 1.6-4.2 3.1-21 13.9-47.7 38.6-54.6 50.6l-2.9 5-3.6-5.8c-1.9-3.2-5.8-8.3-8.5-11.4-2.9-3.2-4.7-6-4.3-6.7.4-.6 6.7-3.2 14-5.7 16.3-5.6 37.9-15.2 52.6-23.3 11.7-6.5 11.5-6.4 11.5-5.8zm-274 21.1c1.4.8 2.1 1.4 1.5 1.4-.5 0-2.1-.6-3.5-1.4-1.4-.8-2-1.4-1.5-1.4.6 0 2.1.6 3.5 1.4zm18 6.7c33.4 11.4 66.9 16.7 99 15.5l15.5-.5-5.2 1.8c-14.3 5-24.7 12.9-29.1 22l-2.8 5.9-4.9-3.1c-15.1-9.5-41-23.6-63-34.5-13.7-6.8-24.1-12.1-23-11.8 1.1.4 7.2 2.5 13.5 4.7z"/></svg>